# xmcd
#
# Track frame offsets: 
#        150
#        18172
#        37109
#        49021
#        65875
#        87664
#        104673
#        127645
#        145491
#        167561
#
# Disc length: 2488 seconds
#
# Revision: 0
# Processed by: cddbd v1.5.2PL0 Copyright (c) Steve Scherf et al.
# Submitted via: ExactAudioCopy v1.1
#
DISCID=8c09b60a
DTITLE=Imarhan - Temet
DYEAR=2018
DGENRE=Blues
TTITLE0=Azzaman
TTITLE1=Tamudre
TTITLE2=Ehad Wa Dahg
TTITLE3=Alwa
TTITLE4=Imuhagh
TTITLE5=Tumast
TTITLE6=Traha Nam
TTITLE7=Tochal
TTITLE8=Zinizjumegh
TTITLE9=Ma S-Abok
EXTD=
EXTT0=
EXTT1=
EXTT2=
EXTT3=
EXTT4=
EXTT5=
EXTT6=
EXTT7=
EXTT8=
EXTT9=
PLAYORDER=
